<svg width="355" height="37" viewBox="0 0 355 37" fill="none" xmlns="http://www.w3.org/2000/svg">
<path d="M20.735 8.49C19.535 7.86 18.275 7.335 16.955 6.915C15.665 6.465 14.42 6.24 13.22 6.24C11.6 6.24 10.325 6.6 9.395 7.32C8.465 8.01 8 9 8 10.29C8 11.16 8.315 11.925 8.945 12.585C9.605 13.245 10.445 13.83 11.465 14.34C12.485 14.85 13.565 15.315 14.705 15.735C16.025 16.215 17.3 16.83 18.53 17.58C19.79 18.3 20.81 19.29 21.59 20.55C22.4 21.78 22.805 23.43 22.805 25.5C22.805 27.21 22.37 28.785 21.5 30.225C20.63 31.635 19.385 32.76 17.765 33.6C16.145 34.44 14.165 34.86 11.825 34.86C9.815 34.86 7.85 34.545 5.93 33.915C4.04 33.255 2.345 32.415 0.845 31.395L3.23 27.21C4.31 28.02 5.6 28.725 7.1 29.325C8.63 29.895 10.04 30.18 11.33 30.18C12.29 30.18 13.22 30.03 14.12 29.73C15.02 29.43 15.77 28.935 16.37 28.245C16.97 27.555 17.27 26.64 17.27 25.5C17.27 24.6 17 23.82 16.46 23.16C15.95 22.5 15.26 21.93 14.39 21.45C13.55 20.97 12.635 20.535 11.645 20.145C10.625 19.755 9.575 19.32 8.495 18.84C7.445 18.36 6.47 17.775 5.57 17.085C4.67 16.365 3.935 15.495 3.365 14.475C2.795 13.425 2.51 12.165 2.51 10.695C2.51 8.865 2.93 7.29 3.77 5.97C4.61 4.62 5.78 3.57 7.28 2.82C8.78 2.04 10.49 1.605 12.41 1.515C14.75 1.515 16.73 1.8 18.35 2.37C20 2.94 21.455 3.615 22.715 4.395L20.735 8.49ZM26.2264 34.5L40.7614 0.389999H41.0764L55.6114 34.5H49.4464L39.3214 8.715L43.1464 6.15L31.4914 34.5H26.2264ZM35.4064 22.35H46.5214L48.3664 26.895H33.7864L35.4064 22.35ZM60.052 1.695L70.312 27.255L67.252 26.67L76.792 1.695H83.092L68.377 36.03L53.707 1.695H60.052ZM89.2373 1.695H94.5473V34.5H89.2373V1.695ZM132.408 35.715L107.253 11.415L108.828 12.045L108.918 34.5H103.563V0.57H103.788L128.538 24.87L127.323 24.465L127.233 1.695H132.543V35.715H132.408ZM167.632 31.485C167.212 31.875 166.582 32.28 165.742 32.7C164.932 33.09 164.002 33.45 162.952 33.78C161.932 34.11 160.882 34.365 159.802 34.545C158.722 34.755 157.702 34.86 156.742 34.86C153.232 34.86 150.187 34.17 147.607 32.79C145.027 31.38 143.032 29.475 141.622 27.075C140.212 24.675 139.507 21.945 139.507 18.885C139.507 16.005 139.957 13.485 140.857 11.325C141.757 9.135 142.987 7.305 144.547 5.835C146.107 4.335 147.892 3.21 149.902 2.46C151.942 1.71 154.087 1.335 156.337 1.335C158.347 1.335 160.192 1.575 161.872 2.055C163.552 2.505 165.007 3.075 166.237 3.765L164.482 8.67C163.912 8.34 163.177 8.025 162.277 7.725C161.407 7.395 160.492 7.14 159.532 6.96C158.602 6.78 157.762 6.69 157.012 6.69C154.522 6.69 152.377 7.155 150.577 8.085C148.807 9.015 147.427 10.35 146.437 12.09C145.477 13.83 144.997 15.945 144.997 18.435C144.997 20.655 145.492 22.605 146.482 24.285C147.502 25.935 148.897 27.225 150.667 28.155C152.467 29.085 154.537 29.55 156.877 29.55C157.897 29.55 158.872 29.46 159.802 29.28C160.762 29.1 161.572 28.815 162.232 28.425V23.07H156.112V17.94H167.632V31.485ZM204.391 35.715L179.236 11.415L180.811 12.045L180.901 34.5H175.546V0.57H175.771L200.521 24.87L199.306 24.465L199.216 1.695H204.526V35.715H204.391ZM210.05 34.5L224.585 0.389999H224.9L239.435 34.5H233.27L223.145 8.715L226.97 6.15L215.315 34.5H210.05ZM219.23 22.35H230.345L232.19 26.895H217.61L219.23 22.35ZM240.047 1.695H262.007V6.825H253.547V34.5H248.237V6.825H240.047V1.695ZM273.392 22.665C273.392 23.925 273.722 25.095 274.382 26.175C275.042 27.225 275.927 28.08 277.037 28.74C278.177 29.37 279.422 29.685 280.772 29.685C282.242 29.685 283.532 29.37 284.642 28.74C285.782 28.08 286.682 27.225 287.342 26.175C288.002 25.095 288.332 23.925 288.332 22.665V1.695H293.552V22.8C293.552 25.17 292.982 27.27 291.842 29.1C290.702 30.9 289.157 32.31 287.207 33.33C285.287 34.35 283.142 34.86 280.772 34.86C278.432 34.86 276.287 34.35 274.337 33.33C272.417 32.31 270.887 30.9 269.747 29.1C268.637 27.27 268.082 25.17 268.082 22.8V1.695H273.392V22.665ZM311.291 1.695C313.751 1.695 315.881 2.115 317.681 2.955C319.511 3.795 320.921 4.995 321.911 6.555C322.931 8.115 323.441 10.02 323.441 12.27C323.441 13.59 323.246 14.895 322.856 16.185C322.466 17.475 321.821 18.645 320.921 19.695C320.051 20.745 318.896 21.585 317.456 22.215C316.016 22.845 314.231 23.16 312.101 23.16H307.331V34.5H302.021V1.695H311.291ZM312.011 18.03C313.571 18.03 314.771 17.73 315.611 17.13C316.481 16.5 317.081 15.75 317.411 14.88C317.771 14.01 317.951 13.2 317.951 12.45C317.951 11.94 317.861 11.37 317.681 10.74C317.501 10.11 317.201 9.495 316.781 8.895C316.361 8.295 315.776 7.8 315.026 7.41C314.306 7.02 313.376 6.825 312.236 6.825H307.331V18.03H312.011ZM317.726 21.225L326.096 34.5H319.886L311.381 21.36L317.726 21.225ZM332.211 1.695H353.991V6.825H337.521V15.465H352.191V20.595H337.521V29.37H354.621V34.5H332.211V1.695Z" fill="#DAD7CD"/>
</svg>
